G04 #@! TF.FileFunction,Copper,L1,Top,Signal*
%FSLAX46Y46*%
G04 Gerber Fmt 4.6, Leading zero omitted, Abs format (unit mm)*
G04 Created by KiCad (PCBNEW 4.0.2+e4-6225~38~ubuntu14.04.1-stable) date Fri 01 Jul 2016 14:13:15 SAST*
%MOMM*%
G01*
G04 APERTURE LIST*
%ADD10C,0.050000*%
%ADD11C,1.500000*%
%ADD12C,3.000000*%
%ADD13R,2.032000X1.727200*%
%ADD14O,2.032000X1.727200*%
%ADD15R,1.500000X1.250000*%
%ADD16C,1.000000*%
%ADD17C,0.500000*%
G04 APERTURE END LIST*
D10*
D11*
X123500000Y-76800000D03*
X121000000Y-76800000D03*
X119000000Y-76800000D03*
X116500000Y-76800000D03*
X116500000Y-74300000D03*
X119000000Y-74300000D03*
X121000000Y-74300000D03*
X123500000Y-74300000D03*
D12*
X113430000Y-79500000D03*
X113430000Y-74000000D03*
X126570000Y-79500000D03*
X126570000Y-74000000D03*
D13*
X131000000Y-88000000D03*
D14*
X131000000Y-85460000D03*
X131000000Y-82920000D03*
X131000000Y-80380000D03*
X131000000Y-77840000D03*
D13*
X133540000Y-88000000D03*
D14*
X133540000Y-85460000D03*
X133540000Y-82920000D03*
X133540000Y-80380000D03*
X133540000Y-77840000D03*
D15*
X113750000Y-71000000D03*
X116250000Y-71000000D03*
D16*
X131000000Y-85460000D02*
X119460000Y-85460000D01*
X119000000Y-85000000D02*
X119000000Y-76800000D01*
X119460000Y-85460000D02*
X119000000Y-85000000D01*
X121000000Y-76800000D02*
X121000000Y-82500000D01*
X121420000Y-82920000D02*
X131000000Y-82920000D01*
X121000000Y-82500000D02*
X121420000Y-82920000D01*
X119000000Y-74300000D02*
X119000000Y-73000000D01*
X135040000Y-85460000D02*
X133540000Y-85460000D01*
X137000000Y-83500000D02*
X135040000Y-85460000D01*
X137000000Y-75000000D02*
X137000000Y-83500000D01*
X132249998Y-70249998D02*
X137000000Y-75000000D01*
X121750002Y-70249998D02*
X132249998Y-70249998D01*
X119000000Y-73000000D02*
X121750002Y-70249998D01*
X121000000Y-74300000D02*
X121000000Y-73000000D01*
X135080000Y-82920000D02*
X133540000Y-82920000D01*
X135500000Y-82500000D02*
X135080000Y-82920000D01*
X135500000Y-75500000D02*
X135500000Y-82500000D01*
X131500000Y-71500000D02*
X135500000Y-75500000D01*
X122500000Y-71500000D02*
X131500000Y-71500000D01*
X121000000Y-73000000D02*
X122500000Y-71500000D01*
X116500000Y-74300000D02*
X116500000Y-71250000D01*
X116500000Y-71250000D02*
X116250000Y-71000000D01*
X133540000Y-88000000D02*
X131000000Y-88000000D01*
X116500000Y-76800000D02*
X116500000Y-87500000D01*
X117000000Y-88000000D02*
X131000000Y-88000000D01*
X116500000Y-87500000D02*
X117000000Y-88000000D01*
X116500000Y-74300000D02*
X116500000Y-76800000D01*
D17*
G36*
X112357398Y-69945628D02*
X112242000Y-70224225D01*
X112242000Y-70806500D01*
X112431500Y-70996000D01*
X113746000Y-70996000D01*
X113746000Y-70976000D01*
X113754000Y-70976000D01*
X113754000Y-70996000D01*
X113774000Y-70996000D01*
X113774000Y-71004000D01*
X113754000Y-71004000D01*
X113754000Y-71024000D01*
X113746000Y-71024000D01*
X113746000Y-71004000D01*
X112431500Y-71004000D01*
X112242000Y-71193500D01*
X112242000Y-71775775D01*
X112334112Y-71998154D01*
X112223676Y-72039114D01*
X112080016Y-72135103D01*
X111938901Y-72503244D01*
X113430000Y-73994343D01*
X114921099Y-72503244D01*
X114844283Y-72302847D01*
X114929373Y-72267601D01*
X114997744Y-72199230D01*
X115199318Y-72336960D01*
X115242000Y-72345603D01*
X115242000Y-72629740D01*
X114926756Y-72508901D01*
X113435657Y-74000000D01*
X114926756Y-75491099D01*
X115242000Y-75370260D01*
X115242000Y-75908075D01*
X115212158Y-75937865D01*
X114980264Y-76496327D01*
X114979736Y-77101020D01*
X115210655Y-77659886D01*
X115242000Y-77691286D01*
X115242000Y-78129740D01*
X114926756Y-78008901D01*
X113435657Y-79500000D01*
X114926756Y-80991099D01*
X115242000Y-80870260D01*
X115242000Y-87500000D01*
X115337760Y-87981416D01*
X115610460Y-88389540D01*
X116110460Y-88889540D01*
X116518584Y-89162240D01*
X116959781Y-89250000D01*
X111250000Y-89250000D01*
X111250000Y-80996756D01*
X111938901Y-80996756D01*
X112080016Y-81364897D01*
X112896443Y-81739556D01*
X113794099Y-81773263D01*
X114636324Y-81460886D01*
X114779984Y-81364897D01*
X114921099Y-80996756D01*
X113430000Y-79505657D01*
X111938901Y-80996756D01*
X111250000Y-80996756D01*
X111250000Y-80115553D01*
X111469114Y-80706324D01*
X111565103Y-80849984D01*
X111933244Y-80991099D01*
X113424343Y-79500000D01*
X111933244Y-78008901D01*
X111565103Y-78150016D01*
X111250000Y-78836663D01*
X111250000Y-78003244D01*
X111938901Y-78003244D01*
X113430000Y-79494343D01*
X114921099Y-78003244D01*
X114779984Y-77635103D01*
X113963557Y-77260444D01*
X113065901Y-77226737D01*
X112223676Y-77539114D01*
X112080016Y-77635103D01*
X111938901Y-78003244D01*
X111250000Y-78003244D01*
X111250000Y-75496756D01*
X111938901Y-75496756D01*
X112080016Y-75864897D01*
X112896443Y-76239556D01*
X113794099Y-76273263D01*
X114636324Y-75960886D01*
X114779984Y-75864897D01*
X114921099Y-75496756D01*
X113430000Y-74005657D01*
X111938901Y-75496756D01*
X111250000Y-75496756D01*
X111250000Y-74615553D01*
X111469114Y-75206324D01*
X111565103Y-75349984D01*
X111933244Y-75491099D01*
X113424343Y-74000000D01*
X111933244Y-72508901D01*
X111565103Y-72650016D01*
X111250000Y-73336663D01*
X111250000Y-69750000D01*
X112553026Y-69750000D01*
X112357398Y-69945628D01*
X112357398Y-69945628D01*
G37*
X112357398Y-69945628D02*
X112242000Y-70224225D01*
X112242000Y-70806500D01*
X112431500Y-70996000D01*
X113746000Y-70996000D01*
X113746000Y-70976000D01*
X113754000Y-70976000D01*
X113754000Y-70996000D01*
X113774000Y-70996000D01*
X113774000Y-71004000D01*
X113754000Y-71004000D01*
X113754000Y-71024000D01*
X113746000Y-71024000D01*
X113746000Y-71004000D01*
X112431500Y-71004000D01*
X112242000Y-71193500D01*
X112242000Y-71775775D01*
X112334112Y-71998154D01*
X112223676Y-72039114D01*
X112080016Y-72135103D01*
X111938901Y-72503244D01*
X113430000Y-73994343D01*
X114921099Y-72503244D01*
X114844283Y-72302847D01*
X114929373Y-72267601D01*
X114997744Y-72199230D01*
X115199318Y-72336960D01*
X115242000Y-72345603D01*
X115242000Y-72629740D01*
X114926756Y-72508901D01*
X113435657Y-74000000D01*
X114926756Y-75491099D01*
X115242000Y-75370260D01*
X115242000Y-75908075D01*
X115212158Y-75937865D01*
X114980264Y-76496327D01*
X114979736Y-77101020D01*
X115210655Y-77659886D01*
X115242000Y-77691286D01*
X115242000Y-78129740D01*
X114926756Y-78008901D01*
X113435657Y-79500000D01*
X114926756Y-80991099D01*
X115242000Y-80870260D01*
X115242000Y-87500000D01*
X115337760Y-87981416D01*
X115610460Y-88389540D01*
X116110460Y-88889540D01*
X116518584Y-89162240D01*
X116959781Y-89250000D01*
X111250000Y-89250000D01*
X111250000Y-80996756D01*
X111938901Y-80996756D01*
X112080016Y-81364897D01*
X112896443Y-81739556D01*
X113794099Y-81773263D01*
X114636324Y-81460886D01*
X114779984Y-81364897D01*
X114921099Y-80996756D01*
X113430000Y-79505657D01*
X111938901Y-80996756D01*
X111250000Y-80996756D01*
X111250000Y-80115553D01*
X111469114Y-80706324D01*
X111565103Y-80849984D01*
X111933244Y-80991099D01*
X113424343Y-79500000D01*
X111933244Y-78008901D01*
X111565103Y-78150016D01*
X111250000Y-78836663D01*
X111250000Y-78003244D01*
X111938901Y-78003244D01*
X113430000Y-79494343D01*
X114921099Y-78003244D01*
X114779984Y-77635103D01*
X113963557Y-77260444D01*
X113065901Y-77226737D01*
X112223676Y-77539114D01*
X112080016Y-77635103D01*
X111938901Y-78003244D01*
X111250000Y-78003244D01*
X111250000Y-75496756D01*
X111938901Y-75496756D01*
X112080016Y-75864897D01*
X112896443Y-76239556D01*
X113794099Y-76273263D01*
X114636324Y-75960886D01*
X114779984Y-75864897D01*
X114921099Y-75496756D01*
X113430000Y-74005657D01*
X111938901Y-75496756D01*
X111250000Y-75496756D01*
X111250000Y-74615553D01*
X111469114Y-75206324D01*
X111565103Y-75349984D01*
X111933244Y-75491099D01*
X113424343Y-74000000D01*
X111933244Y-72508901D01*
X111565103Y-72650016D01*
X111250000Y-73336663D01*
X111250000Y-69750000D01*
X112553026Y-69750000D01*
X112357398Y-69945628D01*
G36*
X134242000Y-76021081D02*
X134242000Y-76328327D01*
X133696400Y-76218400D01*
X133544000Y-76218400D01*
X133544000Y-77836000D01*
X133564000Y-77836000D01*
X133564000Y-77844000D01*
X133544000Y-77844000D01*
X133544000Y-80376000D01*
X133564000Y-80376000D01*
X133564000Y-80384000D01*
X133544000Y-80384000D01*
X133544000Y-80404000D01*
X133536000Y-80404000D01*
X133536000Y-80384000D01*
X131004000Y-80384000D01*
X131004000Y-80404000D01*
X130996000Y-80404000D01*
X130996000Y-80384000D01*
X129415506Y-80384000D01*
X129246595Y-80637624D01*
X129347906Y-80996864D01*
X129698127Y-81523816D01*
X129868440Y-81638224D01*
X129832857Y-81662000D01*
X127234084Y-81662000D01*
X127776324Y-81460886D01*
X127919984Y-81364897D01*
X128061099Y-80996756D01*
X126570000Y-79505657D01*
X125078901Y-80996756D01*
X125220016Y-81364897D01*
X125867439Y-81662000D01*
X122258000Y-81662000D01*
X122258000Y-79864099D01*
X124296737Y-79864099D01*
X124609114Y-80706324D01*
X124705103Y-80849984D01*
X125073244Y-80991099D01*
X126564343Y-79500000D01*
X126575657Y-79500000D01*
X128066756Y-80991099D01*
X128434897Y-80849984D01*
X128809556Y-80033557D01*
X128843263Y-79135901D01*
X128530886Y-78293676D01*
X128434897Y-78150016D01*
X128298217Y-78097624D01*
X129246595Y-78097624D01*
X129347906Y-78456864D01*
X129698127Y-78983816D01*
X129885970Y-79110000D01*
X129698127Y-79236184D01*
X129347906Y-79763136D01*
X129246595Y-80122376D01*
X129415506Y-80376000D01*
X130996000Y-80376000D01*
X130996000Y-77844000D01*
X131004000Y-77844000D01*
X131004000Y-80376000D01*
X133536000Y-80376000D01*
X133536000Y-77844000D01*
X131004000Y-77844000D01*
X130996000Y-77844000D01*
X129415506Y-77844000D01*
X129246595Y-78097624D01*
X128298217Y-78097624D01*
X128066756Y-78008901D01*
X126575657Y-79500000D01*
X126564343Y-79500000D01*
X125073244Y-78008901D01*
X124705103Y-78150016D01*
X124330444Y-78966443D01*
X124296737Y-79864099D01*
X122258000Y-79864099D01*
X122258000Y-77764687D01*
X122540970Y-77764687D01*
X122592302Y-78056145D01*
X123142101Y-78307888D01*
X123746389Y-78330069D01*
X124313165Y-78119311D01*
X124407698Y-78056145D01*
X124417014Y-78003244D01*
X125078901Y-78003244D01*
X126570000Y-79494343D01*
X128061099Y-78003244D01*
X127919984Y-77635103D01*
X127805086Y-77582376D01*
X129246595Y-77582376D01*
X129415506Y-77836000D01*
X130996000Y-77836000D01*
X130996000Y-76218400D01*
X131004000Y-76218400D01*
X131004000Y-77836000D01*
X133536000Y-77836000D01*
X133536000Y-76218400D01*
X133383600Y-76218400D01*
X132763345Y-76343368D01*
X132270000Y-76674773D01*
X131776655Y-76343368D01*
X131156400Y-76218400D01*
X131004000Y-76218400D01*
X130996000Y-76218400D01*
X130843600Y-76218400D01*
X130223345Y-76343368D01*
X129698127Y-76696184D01*
X129347906Y-77223136D01*
X129246595Y-77582376D01*
X127805086Y-77582376D01*
X127103557Y-77260444D01*
X126205901Y-77226737D01*
X125363676Y-77539114D01*
X125220016Y-77635103D01*
X125078901Y-78003244D01*
X124417014Y-78003244D01*
X124459030Y-77764687D01*
X123500000Y-76805657D01*
X122540970Y-77764687D01*
X122258000Y-77764687D01*
X122258000Y-77710189D01*
X122535313Y-77759030D01*
X123494343Y-76800000D01*
X123505657Y-76800000D01*
X124464687Y-77759030D01*
X124756145Y-77707698D01*
X125007888Y-77157899D01*
X125030069Y-76553611D01*
X124819311Y-75986835D01*
X124756145Y-75892302D01*
X124464687Y-75840970D01*
X123505657Y-76800000D01*
X123494343Y-76800000D01*
X122535313Y-75840970D01*
X122243855Y-75892302D01*
X122243151Y-75893839D01*
X121899606Y-75549694D01*
X122185111Y-75264687D01*
X122540970Y-75264687D01*
X122591220Y-75550000D01*
X122540970Y-75835313D01*
X123500000Y-76794343D01*
X124459030Y-75835313D01*
X124408780Y-75550000D01*
X124418157Y-75496756D01*
X125078901Y-75496756D01*
X125220016Y-75864897D01*
X126036443Y-76239556D01*
X126934099Y-76273263D01*
X127776324Y-75960886D01*
X127919984Y-75864897D01*
X128061099Y-75496756D01*
X126570000Y-74005657D01*
X125078901Y-75496756D01*
X124418157Y-75496756D01*
X124459030Y-75264687D01*
X123500000Y-74305657D01*
X122540970Y-75264687D01*
X122185111Y-75264687D01*
X122243193Y-75206707D01*
X122243855Y-75207698D01*
X122535313Y-75259030D01*
X123494343Y-74300000D01*
X123480201Y-74285858D01*
X123485858Y-74280201D01*
X123500000Y-74294343D01*
X123514142Y-74280201D01*
X123519799Y-74285858D01*
X123505657Y-74300000D01*
X124464687Y-75259030D01*
X124625416Y-75230722D01*
X124705103Y-75349984D01*
X125073244Y-75491099D01*
X126564343Y-74000000D01*
X126550201Y-73985858D01*
X126555858Y-73980201D01*
X126570000Y-73994343D01*
X126584142Y-73980201D01*
X126589799Y-73985858D01*
X126575657Y-74000000D01*
X128066756Y-75491099D01*
X128434897Y-75349984D01*
X128809556Y-74533557D01*
X128843263Y-73635901D01*
X128530886Y-72793676D01*
X128507048Y-72758000D01*
X130978920Y-72758000D01*
X134242000Y-76021081D01*
X134242000Y-76021081D01*
G37*
X134242000Y-76021081D02*
X134242000Y-76328327D01*
X133696400Y-76218400D01*
X133544000Y-76218400D01*
X133544000Y-77836000D01*
X133564000Y-77836000D01*
X133564000Y-77844000D01*
X133544000Y-77844000D01*
X133544000Y-80376000D01*
X133564000Y-80376000D01*
X133564000Y-80384000D01*
X133544000Y-80384000D01*
X133544000Y-80404000D01*
X133536000Y-80404000D01*
X133536000Y-80384000D01*
X131004000Y-80384000D01*
X131004000Y-80404000D01*
X130996000Y-80404000D01*
X130996000Y-80384000D01*
X129415506Y-80384000D01*
X129246595Y-80637624D01*
X129347906Y-80996864D01*
X129698127Y-81523816D01*
X129868440Y-81638224D01*
X129832857Y-81662000D01*
X127234084Y-81662000D01*
X127776324Y-81460886D01*
X127919984Y-81364897D01*
X128061099Y-80996756D01*
X126570000Y-79505657D01*
X125078901Y-80996756D01*
X125220016Y-81364897D01*
X125867439Y-81662000D01*
X122258000Y-81662000D01*
X122258000Y-79864099D01*
X124296737Y-79864099D01*
X124609114Y-80706324D01*
X124705103Y-80849984D01*
X125073244Y-80991099D01*
X126564343Y-79500000D01*
X126575657Y-79500000D01*
X128066756Y-80991099D01*
X128434897Y-80849984D01*
X128809556Y-80033557D01*
X128843263Y-79135901D01*
X128530886Y-78293676D01*
X128434897Y-78150016D01*
X128298217Y-78097624D01*
X129246595Y-78097624D01*
X129347906Y-78456864D01*
X129698127Y-78983816D01*
X129885970Y-79110000D01*
X129698127Y-79236184D01*
X129347906Y-79763136D01*
X129246595Y-80122376D01*
X129415506Y-80376000D01*
X130996000Y-80376000D01*
X130996000Y-77844000D01*
X131004000Y-77844000D01*
X131004000Y-80376000D01*
X133536000Y-80376000D01*
X133536000Y-77844000D01*
X131004000Y-77844000D01*
X130996000Y-77844000D01*
X129415506Y-77844000D01*
X129246595Y-78097624D01*
X128298217Y-78097624D01*
X128066756Y-78008901D01*
X126575657Y-79500000D01*
X126564343Y-79500000D01*
X125073244Y-78008901D01*
X124705103Y-78150016D01*
X124330444Y-78966443D01*
X124296737Y-79864099D01*
X122258000Y-79864099D01*
X122258000Y-77764687D01*
X122540970Y-77764687D01*
X122592302Y-78056145D01*
X123142101Y-78307888D01*
X123746389Y-78330069D01*
X124313165Y-78119311D01*
X124407698Y-78056145D01*
X124417014Y-78003244D01*
X125078901Y-78003244D01*
X126570000Y-79494343D01*
X128061099Y-78003244D01*
X127919984Y-77635103D01*
X127805086Y-77582376D01*
X129246595Y-77582376D01*
X129415506Y-77836000D01*
X130996000Y-77836000D01*
X130996000Y-76218400D01*
X131004000Y-76218400D01*
X131004000Y-77836000D01*
X133536000Y-77836000D01*
X133536000Y-76218400D01*
X133383600Y-76218400D01*
X132763345Y-76343368D01*
X132270000Y-76674773D01*
X131776655Y-76343368D01*
X131156400Y-76218400D01*
X131004000Y-76218400D01*
X130996000Y-76218400D01*
X130843600Y-76218400D01*
X130223345Y-76343368D01*
X129698127Y-76696184D01*
X129347906Y-77223136D01*
X129246595Y-77582376D01*
X127805086Y-77582376D01*
X127103557Y-77260444D01*
X126205901Y-77226737D01*
X125363676Y-77539114D01*
X125220016Y-77635103D01*
X125078901Y-78003244D01*
X124417014Y-78003244D01*
X124459030Y-77764687D01*
X123500000Y-76805657D01*
X122540970Y-77764687D01*
X122258000Y-77764687D01*
X122258000Y-77710189D01*
X122535313Y-77759030D01*
X123494343Y-76800000D01*
X123505657Y-76800000D01*
X124464687Y-77759030D01*
X124756145Y-77707698D01*
X125007888Y-77157899D01*
X125030069Y-76553611D01*
X124819311Y-75986835D01*
X124756145Y-75892302D01*
X124464687Y-75840970D01*
X123505657Y-76800000D01*
X123494343Y-76800000D01*
X122535313Y-75840970D01*
X122243855Y-75892302D01*
X122243151Y-75893839D01*
X121899606Y-75549694D01*
X122185111Y-75264687D01*
X122540970Y-75264687D01*
X122591220Y-75550000D01*
X122540970Y-75835313D01*
X123500000Y-76794343D01*
X124459030Y-75835313D01*
X124408780Y-75550000D01*
X124418157Y-75496756D01*
X125078901Y-75496756D01*
X125220016Y-75864897D01*
X126036443Y-76239556D01*
X126934099Y-76273263D01*
X127776324Y-75960886D01*
X127919984Y-75864897D01*
X128061099Y-75496756D01*
X126570000Y-74005657D01*
X125078901Y-75496756D01*
X124418157Y-75496756D01*
X124459030Y-75264687D01*
X123500000Y-74305657D01*
X122540970Y-75264687D01*
X122185111Y-75264687D01*
X122243193Y-75206707D01*
X122243855Y-75207698D01*
X122535313Y-75259030D01*
X123494343Y-74300000D01*
X123480201Y-74285858D01*
X123485858Y-74280201D01*
X123500000Y-74294343D01*
X123514142Y-74280201D01*
X123519799Y-74285858D01*
X123505657Y-74300000D01*
X124464687Y-75259030D01*
X124625416Y-75230722D01*
X124705103Y-75349984D01*
X125073244Y-75491099D01*
X126564343Y-74000000D01*
X126550201Y-73985858D01*
X126555858Y-73980201D01*
X126570000Y-73994343D01*
X126584142Y-73980201D01*
X126589799Y-73985858D01*
X126575657Y-74000000D01*
X128066756Y-75491099D01*
X128434897Y-75349984D01*
X128809556Y-74533557D01*
X128843263Y-73635901D01*
X128530886Y-72793676D01*
X128507048Y-72758000D01*
X130978920Y-72758000D01*
X134242000Y-76021081D01*
M02*
