M48
;DRILL file {KiCad 4.0.2+e4-6225~38~ubuntu14.04.1-stable} date Fri 01 Jul 2016 14:13:17 SAST
;FORMAT={-:-/ absolute / metric / decimal}
FMAT,2
METRIC,TZ
T1C0.700
T2C1.000
T3C2.300
%
G90
G05
M71
T1
X116.5Y-74.3
X116.5Y-76.8
X119.Y-74.3
X119.Y-76.8
X121.Y-74.3
X121.Y-76.8
X123.5Y-74.3
X123.5Y-76.8
T2
X131.Y-77.84
X131.Y-80.38
X131.Y-82.92
X131.Y-85.46
X131.Y-88.
X133.54Y-77.84
X133.54Y-80.38
X133.54Y-82.92
X133.54Y-85.46
X133.54Y-88.
T3
X113.43Y-74.
X113.43Y-79.5
X126.57Y-74.
X126.57Y-79.5
T0
M30
