G04 #@! TF.FileFunction,Copper,L1,Top,Signal*
%FSLAX46Y46*%
G04 Gerber Fmt 4.6, Leading zero omitted, Abs format (unit mm)*
G04 Created by KiCad (PCBNEW 4.0.2+e4-6225~38~ubuntu14.04.1-stable) date Mon 01 Aug 2016 11:47:33 SAST*
%MOMM*%
G01*
G04 APERTURE LIST*
%ADD10C,0.050000*%
%ADD11R,1.500000X1.250000*%
%ADD12R,3.149600X1.800860*%
%ADD13R,2.032000X1.727200*%
%ADD14O,2.032000X1.727200*%
%ADD15R,1.550000X0.600000*%
%ADD16C,0.600000*%
%ADD17C,0.400000*%
G04 APERTURE END LIST*
D10*
D11*
X148570000Y-109220000D03*
X146070000Y-109220000D03*
D12*
X145194020Y-100330000D03*
X149445980Y-100330000D03*
D13*
X138430000Y-101600000D03*
D14*
X138430000Y-104140000D03*
X138430000Y-106680000D03*
X138430000Y-109220000D03*
D13*
X156210000Y-101600000D03*
D14*
X156210000Y-104140000D03*
X156210000Y-106680000D03*
X156210000Y-109220000D03*
D15*
X144620000Y-103505000D03*
X144620000Y-104775000D03*
X144620000Y-106045000D03*
X144620000Y-107315000D03*
X150020000Y-107315000D03*
X150020000Y-106045000D03*
X150020000Y-104775000D03*
X150020000Y-103505000D03*
D16*
X150020000Y-104775000D02*
X155575000Y-104775000D01*
X155575000Y-104775000D02*
X156210000Y-104140000D01*
X150020000Y-104775000D02*
X148570000Y-104775000D01*
X148570000Y-109220000D02*
X148570000Y-104775000D01*
X148570000Y-104775000D02*
X148570000Y-101205980D01*
X148570000Y-101205980D02*
X149445980Y-100330000D01*
X144620000Y-107315000D02*
X140335000Y-107315000D01*
X140335000Y-107315000D02*
X138430000Y-109220000D01*
X144620000Y-103505000D02*
X140335000Y-103505000D01*
X140335000Y-103505000D02*
X138430000Y-101600000D01*
X144620000Y-104775000D02*
X139065000Y-104775000D01*
X139065000Y-104775000D02*
X138430000Y-104140000D01*
X144620000Y-106045000D02*
X139065000Y-106045000D01*
X139065000Y-106045000D02*
X138430000Y-106680000D01*
X150020000Y-103505000D02*
X154305000Y-103505000D01*
X154305000Y-103505000D02*
X156210000Y-101600000D01*
X150020000Y-106045000D02*
X155575000Y-106045000D01*
X155575000Y-106045000D02*
X156210000Y-106680000D01*
X150020000Y-107315000D02*
X154305000Y-107315000D01*
X154305000Y-107315000D02*
X156210000Y-109220000D01*
D17*
G36*
X158075000Y-111085000D02*
X136565000Y-111085000D01*
X136565000Y-109502137D01*
X136841452Y-109502137D01*
X136904745Y-109730206D01*
X137204495Y-110216738D01*
X137667615Y-110551525D01*
X138223600Y-110683600D01*
X138376000Y-110683600D01*
X138376000Y-109274000D01*
X138484000Y-109274000D01*
X138484000Y-110683600D01*
X138636400Y-110683600D01*
X139192385Y-110551525D01*
X139655505Y-110216738D01*
X139955255Y-109730206D01*
X140018548Y-109502137D01*
X139976196Y-109424000D01*
X144720000Y-109424000D01*
X144720000Y-109964348D01*
X144811345Y-110184873D01*
X144980128Y-110353656D01*
X145200653Y-110445000D01*
X145866000Y-110445000D01*
X146016000Y-110295000D01*
X146016000Y-109274000D01*
X144870000Y-109274000D01*
X144720000Y-109424000D01*
X139976196Y-109424000D01*
X139894890Y-109274000D01*
X138484000Y-109274000D01*
X138376000Y-109274000D01*
X136965110Y-109274000D01*
X136841452Y-109502137D01*
X136565000Y-109502137D01*
X136565000Y-104140000D01*
X136782341Y-104140000D01*
X136893751Y-104700095D01*
X137211020Y-105174921D01*
X137562840Y-105410000D01*
X137211020Y-105645079D01*
X136893751Y-106119905D01*
X136782341Y-106680000D01*
X136893751Y-107240095D01*
X137211020Y-107714921D01*
X137573060Y-107956829D01*
X137204495Y-108223262D01*
X136904745Y-108709794D01*
X136841452Y-108937863D01*
X136965110Y-109166000D01*
X138376000Y-109166000D01*
X138376000Y-109146000D01*
X138484000Y-109146000D01*
X138484000Y-109166000D01*
X139894890Y-109166000D01*
X140018548Y-108937863D01*
X139955255Y-108709794D01*
X139655505Y-108223262D01*
X139286940Y-107956829D01*
X139648980Y-107714921D01*
X139779890Y-107519000D01*
X143245000Y-107519000D01*
X143245000Y-107734348D01*
X143336345Y-107954873D01*
X143505128Y-108123656D01*
X143725653Y-108215000D01*
X144416000Y-108215000D01*
X144566000Y-108065000D01*
X144566000Y-107369000D01*
X144674000Y-107369000D01*
X144674000Y-108065000D01*
X144824000Y-108215000D01*
X144851472Y-108215000D01*
X144811345Y-108255127D01*
X144720000Y-108475652D01*
X144720000Y-109016000D01*
X144870000Y-109166000D01*
X146016000Y-109166000D01*
X146016000Y-108145000D01*
X145866000Y-107995000D01*
X145863528Y-107995000D01*
X145903655Y-107954873D01*
X145995000Y-107734348D01*
X145995000Y-107519000D01*
X145845000Y-107369000D01*
X144674000Y-107369000D01*
X144566000Y-107369000D01*
X143395000Y-107369000D01*
X143245000Y-107519000D01*
X139779890Y-107519000D01*
X139966249Y-107240095D01*
X140024947Y-106945000D01*
X143245000Y-106945000D01*
X143245000Y-107111000D01*
X143395000Y-107261000D01*
X144566000Y-107261000D01*
X144566000Y-107241000D01*
X144674000Y-107241000D01*
X144674000Y-107261000D01*
X145845000Y-107261000D01*
X145995000Y-107111000D01*
X145995000Y-106895652D01*
X145903655Y-106675127D01*
X145898877Y-106670349D01*
X145958556Y-106583007D01*
X146006754Y-106345000D01*
X146006754Y-105745000D01*
X145964917Y-105522654D01*
X145892357Y-105409893D01*
X145958556Y-105313007D01*
X146006754Y-105075000D01*
X146006754Y-104475000D01*
X145964917Y-104252654D01*
X145892357Y-104139893D01*
X145958556Y-104043007D01*
X146006754Y-103805000D01*
X146006754Y-103205000D01*
X145964917Y-102982654D01*
X145833510Y-102778442D01*
X145633007Y-102641444D01*
X145395000Y-102593246D01*
X143845000Y-102593246D01*
X143782532Y-102605000D01*
X140707792Y-102605000D01*
X140057754Y-101954962D01*
X140057754Y-100736400D01*
X140019671Y-100534000D01*
X143019220Y-100534000D01*
X143019220Y-101349778D01*
X143110565Y-101570303D01*
X143279348Y-101739086D01*
X143499873Y-101830430D01*
X144990020Y-101830430D01*
X145140020Y-101680430D01*
X145140020Y-100384000D01*
X143169220Y-100384000D01*
X143019220Y-100534000D01*
X140019671Y-100534000D01*
X140015917Y-100514054D01*
X139884510Y-100309842D01*
X139684007Y-100172844D01*
X139446000Y-100124646D01*
X137414000Y-100124646D01*
X137191654Y-100166483D01*
X136987442Y-100297890D01*
X136850444Y-100498393D01*
X136802246Y-100736400D01*
X136802246Y-102463600D01*
X136844083Y-102685946D01*
X136975490Y-102890158D01*
X137175993Y-103027156D01*
X137292369Y-103050723D01*
X137211020Y-103105079D01*
X136893751Y-103579905D01*
X136782341Y-104140000D01*
X136565000Y-104140000D01*
X136565000Y-99310222D01*
X143019220Y-99310222D01*
X143019220Y-100126000D01*
X143169220Y-100276000D01*
X145140020Y-100276000D01*
X145140020Y-98979570D01*
X145248020Y-98979570D01*
X145248020Y-100276000D01*
X145268020Y-100276000D01*
X145268020Y-100384000D01*
X145248020Y-100384000D01*
X145248020Y-101680430D01*
X145398020Y-101830430D01*
X146888167Y-101830430D01*
X147108692Y-101739086D01*
X147277475Y-101570303D01*
X147316408Y-101476312D01*
X147432670Y-101656988D01*
X147633173Y-101793986D01*
X147670000Y-101801444D01*
X147670000Y-108011470D01*
X147597654Y-108025083D01*
X147393442Y-108156490D01*
X147327105Y-108253577D01*
X147159872Y-108086344D01*
X146939347Y-107995000D01*
X146274000Y-107995000D01*
X146124000Y-108145000D01*
X146124000Y-109166000D01*
X146144000Y-109166000D01*
X146144000Y-109274000D01*
X146124000Y-109274000D01*
X146124000Y-110295000D01*
X146274000Y-110445000D01*
X146939347Y-110445000D01*
X147159872Y-110353656D01*
X147326863Y-110186665D01*
X147381490Y-110271558D01*
X147581993Y-110408556D01*
X147820000Y-110456754D01*
X149320000Y-110456754D01*
X149542346Y-110414917D01*
X149746558Y-110283510D01*
X149883556Y-110083007D01*
X149931754Y-109845000D01*
X149931754Y-108595000D01*
X149889917Y-108372654D01*
X149796033Y-108226754D01*
X150795000Y-108226754D01*
X150857468Y-108215000D01*
X153932208Y-108215000D01*
X154624536Y-108907328D01*
X154562341Y-109220000D01*
X154673751Y-109780095D01*
X154991020Y-110254921D01*
X155465846Y-110572190D01*
X156025941Y-110683600D01*
X156394059Y-110683600D01*
X156954154Y-110572190D01*
X157428980Y-110254921D01*
X157746249Y-109780095D01*
X157857659Y-109220000D01*
X157746249Y-108659905D01*
X157428980Y-108185079D01*
X157077160Y-107950000D01*
X157428980Y-107714921D01*
X157746249Y-107240095D01*
X157857659Y-106680000D01*
X157746249Y-106119905D01*
X157428980Y-105645079D01*
X157077160Y-105410000D01*
X157428980Y-105174921D01*
X157746249Y-104700095D01*
X157857659Y-104140000D01*
X157746249Y-103579905D01*
X157428980Y-103105079D01*
X157349668Y-103052084D01*
X157448346Y-103033517D01*
X157652558Y-102902110D01*
X157789556Y-102701607D01*
X157837754Y-102463600D01*
X157837754Y-100736400D01*
X157795917Y-100514054D01*
X157664510Y-100309842D01*
X157464007Y-100172844D01*
X157226000Y-100124646D01*
X155194000Y-100124646D01*
X154971654Y-100166483D01*
X154767442Y-100297890D01*
X154630444Y-100498393D01*
X154582246Y-100736400D01*
X154582246Y-101954962D01*
X153932208Y-102605000D01*
X150853043Y-102605000D01*
X150795000Y-102593246D01*
X149470000Y-102593246D01*
X149470000Y-101842184D01*
X151020780Y-101842184D01*
X151243126Y-101800347D01*
X151447338Y-101668940D01*
X151584336Y-101468437D01*
X151632534Y-101230430D01*
X151632534Y-99429570D01*
X151590697Y-99207224D01*
X151459290Y-99003012D01*
X151258787Y-98866014D01*
X151020780Y-98817816D01*
X147871180Y-98817816D01*
X147648834Y-98859653D01*
X147444622Y-98991060D01*
X147315123Y-99180587D01*
X147277475Y-99089697D01*
X147108692Y-98920914D01*
X146888167Y-98829570D01*
X145398020Y-98829570D01*
X145248020Y-98979570D01*
X145140020Y-98979570D01*
X144990020Y-98829570D01*
X143499873Y-98829570D01*
X143279348Y-98920914D01*
X143110565Y-99089697D01*
X143019220Y-99310222D01*
X136565000Y-99310222D01*
X136565000Y-98465000D01*
X158075000Y-98465000D01*
X158075000Y-111085000D01*
X158075000Y-111085000D01*
G37*
X158075000Y-111085000D02*
X136565000Y-111085000D01*
X136565000Y-109502137D01*
X136841452Y-109502137D01*
X136904745Y-109730206D01*
X137204495Y-110216738D01*
X137667615Y-110551525D01*
X138223600Y-110683600D01*
X138376000Y-110683600D01*
X138376000Y-109274000D01*
X138484000Y-109274000D01*
X138484000Y-110683600D01*
X138636400Y-110683600D01*
X139192385Y-110551525D01*
X139655505Y-110216738D01*
X139955255Y-109730206D01*
X140018548Y-109502137D01*
X139976196Y-109424000D01*
X144720000Y-109424000D01*
X144720000Y-109964348D01*
X144811345Y-110184873D01*
X144980128Y-110353656D01*
X145200653Y-110445000D01*
X145866000Y-110445000D01*
X146016000Y-110295000D01*
X146016000Y-109274000D01*
X144870000Y-109274000D01*
X144720000Y-109424000D01*
X139976196Y-109424000D01*
X139894890Y-109274000D01*
X138484000Y-109274000D01*
X138376000Y-109274000D01*
X136965110Y-109274000D01*
X136841452Y-109502137D01*
X136565000Y-109502137D01*
X136565000Y-104140000D01*
X136782341Y-104140000D01*
X136893751Y-104700095D01*
X137211020Y-105174921D01*
X137562840Y-105410000D01*
X137211020Y-105645079D01*
X136893751Y-106119905D01*
X136782341Y-106680000D01*
X136893751Y-107240095D01*
X137211020Y-107714921D01*
X137573060Y-107956829D01*
X137204495Y-108223262D01*
X136904745Y-108709794D01*
X136841452Y-108937863D01*
X136965110Y-109166000D01*
X138376000Y-109166000D01*
X138376000Y-109146000D01*
X138484000Y-109146000D01*
X138484000Y-109166000D01*
X139894890Y-109166000D01*
X140018548Y-108937863D01*
X139955255Y-108709794D01*
X139655505Y-108223262D01*
X139286940Y-107956829D01*
X139648980Y-107714921D01*
X139779890Y-107519000D01*
X143245000Y-107519000D01*
X143245000Y-107734348D01*
X143336345Y-107954873D01*
X143505128Y-108123656D01*
X143725653Y-108215000D01*
X144416000Y-108215000D01*
X144566000Y-108065000D01*
X144566000Y-107369000D01*
X144674000Y-107369000D01*
X144674000Y-108065000D01*
X144824000Y-108215000D01*
X144851472Y-108215000D01*
X144811345Y-108255127D01*
X144720000Y-108475652D01*
X144720000Y-109016000D01*
X144870000Y-109166000D01*
X146016000Y-109166000D01*
X146016000Y-108145000D01*
X145866000Y-107995000D01*
X145863528Y-107995000D01*
X145903655Y-107954873D01*
X145995000Y-107734348D01*
X145995000Y-107519000D01*
X145845000Y-107369000D01*
X144674000Y-107369000D01*
X144566000Y-107369000D01*
X143395000Y-107369000D01*
X143245000Y-107519000D01*
X139779890Y-107519000D01*
X139966249Y-107240095D01*
X140024947Y-106945000D01*
X143245000Y-106945000D01*
X143245000Y-107111000D01*
X143395000Y-107261000D01*
X144566000Y-107261000D01*
X144566000Y-107241000D01*
X144674000Y-107241000D01*
X144674000Y-107261000D01*
X145845000Y-107261000D01*
X145995000Y-107111000D01*
X145995000Y-106895652D01*
X145903655Y-106675127D01*
X145898877Y-106670349D01*
X145958556Y-106583007D01*
X146006754Y-106345000D01*
X146006754Y-105745000D01*
X145964917Y-105522654D01*
X145892357Y-105409893D01*
X145958556Y-105313007D01*
X146006754Y-105075000D01*
X146006754Y-104475000D01*
X145964917Y-104252654D01*
X145892357Y-104139893D01*
X145958556Y-104043007D01*
X146006754Y-103805000D01*
X146006754Y-103205000D01*
X145964917Y-102982654D01*
X145833510Y-102778442D01*
X145633007Y-102641444D01*
X145395000Y-102593246D01*
X143845000Y-102593246D01*
X143782532Y-102605000D01*
X140707792Y-102605000D01*
X140057754Y-101954962D01*
X140057754Y-100736400D01*
X140019671Y-100534000D01*
X143019220Y-100534000D01*
X143019220Y-101349778D01*
X143110565Y-101570303D01*
X143279348Y-101739086D01*
X143499873Y-101830430D01*
X144990020Y-101830430D01*
X145140020Y-101680430D01*
X145140020Y-100384000D01*
X143169220Y-100384000D01*
X143019220Y-100534000D01*
X140019671Y-100534000D01*
X140015917Y-100514054D01*
X139884510Y-100309842D01*
X139684007Y-100172844D01*
X139446000Y-100124646D01*
X137414000Y-100124646D01*
X137191654Y-100166483D01*
X136987442Y-100297890D01*
X136850444Y-100498393D01*
X136802246Y-100736400D01*
X136802246Y-102463600D01*
X136844083Y-102685946D01*
X136975490Y-102890158D01*
X137175993Y-103027156D01*
X137292369Y-103050723D01*
X137211020Y-103105079D01*
X136893751Y-103579905D01*
X136782341Y-104140000D01*
X136565000Y-104140000D01*
X136565000Y-99310222D01*
X143019220Y-99310222D01*
X143019220Y-100126000D01*
X143169220Y-100276000D01*
X145140020Y-100276000D01*
X145140020Y-98979570D01*
X145248020Y-98979570D01*
X145248020Y-100276000D01*
X145268020Y-100276000D01*
X145268020Y-100384000D01*
X145248020Y-100384000D01*
X145248020Y-101680430D01*
X145398020Y-101830430D01*
X146888167Y-101830430D01*
X147108692Y-101739086D01*
X147277475Y-101570303D01*
X147316408Y-101476312D01*
X147432670Y-101656988D01*
X147633173Y-101793986D01*
X147670000Y-101801444D01*
X147670000Y-108011470D01*
X147597654Y-108025083D01*
X147393442Y-108156490D01*
X147327105Y-108253577D01*
X147159872Y-108086344D01*
X146939347Y-107995000D01*
X146274000Y-107995000D01*
X146124000Y-108145000D01*
X146124000Y-109166000D01*
X146144000Y-109166000D01*
X146144000Y-109274000D01*
X146124000Y-109274000D01*
X146124000Y-110295000D01*
X146274000Y-110445000D01*
X146939347Y-110445000D01*
X147159872Y-110353656D01*
X147326863Y-110186665D01*
X147381490Y-110271558D01*
X147581993Y-110408556D01*
X147820000Y-110456754D01*
X149320000Y-110456754D01*
X149542346Y-110414917D01*
X149746558Y-110283510D01*
X149883556Y-110083007D01*
X149931754Y-109845000D01*
X149931754Y-108595000D01*
X149889917Y-108372654D01*
X149796033Y-108226754D01*
X150795000Y-108226754D01*
X150857468Y-108215000D01*
X153932208Y-108215000D01*
X154624536Y-108907328D01*
X154562341Y-109220000D01*
X154673751Y-109780095D01*
X154991020Y-110254921D01*
X155465846Y-110572190D01*
X156025941Y-110683600D01*
X156394059Y-110683600D01*
X156954154Y-110572190D01*
X157428980Y-110254921D01*
X157746249Y-109780095D01*
X157857659Y-109220000D01*
X157746249Y-108659905D01*
X157428980Y-108185079D01*
X157077160Y-107950000D01*
X157428980Y-107714921D01*
X157746249Y-107240095D01*
X157857659Y-106680000D01*
X157746249Y-106119905D01*
X157428980Y-105645079D01*
X157077160Y-105410000D01*
X157428980Y-105174921D01*
X157746249Y-104700095D01*
X157857659Y-104140000D01*
X157746249Y-103579905D01*
X157428980Y-103105079D01*
X157349668Y-103052084D01*
X157448346Y-103033517D01*
X157652558Y-102902110D01*
X157789556Y-102701607D01*
X157837754Y-102463600D01*
X157837754Y-100736400D01*
X157795917Y-100514054D01*
X157664510Y-100309842D01*
X157464007Y-100172844D01*
X157226000Y-100124646D01*
X155194000Y-100124646D01*
X154971654Y-100166483D01*
X154767442Y-100297890D01*
X154630444Y-100498393D01*
X154582246Y-100736400D01*
X154582246Y-101954962D01*
X153932208Y-102605000D01*
X150853043Y-102605000D01*
X150795000Y-102593246D01*
X149470000Y-102593246D01*
X149470000Y-101842184D01*
X151020780Y-101842184D01*
X151243126Y-101800347D01*
X151447338Y-101668940D01*
X151584336Y-101468437D01*
X151632534Y-101230430D01*
X151632534Y-99429570D01*
X151590697Y-99207224D01*
X151459290Y-99003012D01*
X151258787Y-98866014D01*
X151020780Y-98817816D01*
X147871180Y-98817816D01*
X147648834Y-98859653D01*
X147444622Y-98991060D01*
X147315123Y-99180587D01*
X147277475Y-99089697D01*
X147108692Y-98920914D01*
X146888167Y-98829570D01*
X145398020Y-98829570D01*
X145248020Y-98979570D01*
X145140020Y-98979570D01*
X144990020Y-98829570D01*
X143499873Y-98829570D01*
X143279348Y-98920914D01*
X143110565Y-99089697D01*
X143019220Y-99310222D01*
X136565000Y-99310222D01*
X136565000Y-98465000D01*
X158075000Y-98465000D01*
X158075000Y-111085000D01*
M02*
