G04 #@! TF.FileFunction,Copper,L2,Bot,Signal*
%FSLAX46Y46*%
G04 Gerber Fmt 4.6, Leading zero omitted, Abs format (unit mm)*
G04 Created by KiCad (PCBNEW 4.0.2-4+6225~38~ubuntu14.04.1-stable) date Fri 11 Mar 2016 16:17:42 SAST*
%MOMM*%
G01*
G04 APERTURE LIST*
%ADD10C,0.100000*%
%ADD11R,2.032000X1.727200*%
%ADD12O,2.032000X1.727200*%
%ADD13C,0.254000*%
G04 APERTURE END LIST*
D10*
D11*
X160020000Y-91440000D03*
D12*
X160020000Y-93980000D03*
X160020000Y-96520000D03*
X160020000Y-99060000D03*
X160020000Y-101600000D03*
X160020000Y-104140000D03*
X160020000Y-106680000D03*
X160020000Y-109220000D03*
X160020000Y-111760000D03*
X160020000Y-114300000D03*
X160020000Y-116840000D03*
X160020000Y-119380000D03*
X160020000Y-121920000D03*
X160020000Y-124460000D03*
D11*
X180340000Y-91440000D03*
D12*
X180340000Y-93980000D03*
X180340000Y-96520000D03*
X180340000Y-99060000D03*
X180340000Y-101600000D03*
X180340000Y-104140000D03*
X180340000Y-106680000D03*
X180340000Y-109220000D03*
X180340000Y-111760000D03*
X180340000Y-114300000D03*
X180340000Y-116840000D03*
X180340000Y-119380000D03*
X180340000Y-121920000D03*
X180340000Y-124460000D03*
D13*
G36*
X184710000Y-128830000D02*
X155650000Y-128830000D01*
X155650000Y-93980000D01*
X158336655Y-93980000D01*
X158450729Y-94553489D01*
X158775585Y-95039670D01*
X159090366Y-95250000D01*
X158775585Y-95460330D01*
X158450729Y-95946511D01*
X158336655Y-96520000D01*
X158450729Y-97093489D01*
X158775585Y-97579670D01*
X159090366Y-97790000D01*
X158775585Y-98000330D01*
X158450729Y-98486511D01*
X158336655Y-99060000D01*
X158450729Y-99633489D01*
X158775585Y-100119670D01*
X159090366Y-100330000D01*
X158775585Y-100540330D01*
X158450729Y-101026511D01*
X158336655Y-101600000D01*
X158450729Y-102173489D01*
X158775585Y-102659670D01*
X159090366Y-102870000D01*
X158775585Y-103080330D01*
X158450729Y-103566511D01*
X158336655Y-104140000D01*
X158450729Y-104713489D01*
X158775585Y-105199670D01*
X159090366Y-105410000D01*
X158775585Y-105620330D01*
X158450729Y-106106511D01*
X158336655Y-106680000D01*
X158450729Y-107253489D01*
X158775585Y-107739670D01*
X159090366Y-107950000D01*
X158775585Y-108160330D01*
X158450729Y-108646511D01*
X158336655Y-109220000D01*
X158450729Y-109793489D01*
X158775585Y-110279670D01*
X159090366Y-110490000D01*
X158775585Y-110700330D01*
X158450729Y-111186511D01*
X158336655Y-111760000D01*
X158450729Y-112333489D01*
X158775585Y-112819670D01*
X159090366Y-113030000D01*
X158775585Y-113240330D01*
X158450729Y-113726511D01*
X158336655Y-114300000D01*
X158450729Y-114873489D01*
X158775585Y-115359670D01*
X159090366Y-115570000D01*
X158775585Y-115780330D01*
X158450729Y-116266511D01*
X158336655Y-116840000D01*
X158450729Y-117413489D01*
X158775585Y-117899670D01*
X159090366Y-118110000D01*
X158775585Y-118320330D01*
X158450729Y-118806511D01*
X158336655Y-119380000D01*
X158450729Y-119953489D01*
X158775585Y-120439670D01*
X159090366Y-120650000D01*
X158775585Y-120860330D01*
X158450729Y-121346511D01*
X158336655Y-121920000D01*
X158450729Y-122493489D01*
X158775585Y-122979670D01*
X159090366Y-123190000D01*
X158775585Y-123400330D01*
X158450729Y-123886511D01*
X158336655Y-124460000D01*
X158450729Y-125033489D01*
X158775585Y-125519670D01*
X159261766Y-125844526D01*
X159835255Y-125958600D01*
X160204745Y-125958600D01*
X160778234Y-125844526D01*
X161264415Y-125519670D01*
X161589271Y-125033489D01*
X161631930Y-124819026D01*
X178732642Y-124819026D01*
X178735291Y-124834791D01*
X178989268Y-125362036D01*
X179425680Y-125751954D01*
X179978087Y-125945184D01*
X180213000Y-125800924D01*
X180213000Y-124587000D01*
X180467000Y-124587000D01*
X180467000Y-125800924D01*
X180701913Y-125945184D01*
X181254320Y-125751954D01*
X181690732Y-125362036D01*
X181944709Y-124834791D01*
X181947358Y-124819026D01*
X181826217Y-124587000D01*
X180467000Y-124587000D01*
X180213000Y-124587000D01*
X178853783Y-124587000D01*
X178732642Y-124819026D01*
X161631930Y-124819026D01*
X161703345Y-124460000D01*
X161589271Y-123886511D01*
X161264415Y-123400330D01*
X160949634Y-123190000D01*
X161264415Y-122979670D01*
X161589271Y-122493489D01*
X161631930Y-122279026D01*
X178732642Y-122279026D01*
X178735291Y-122294791D01*
X178989268Y-122822036D01*
X179401108Y-123190000D01*
X178989268Y-123557964D01*
X178735291Y-124085209D01*
X178732642Y-124100974D01*
X178853783Y-124333000D01*
X180213000Y-124333000D01*
X180213000Y-122047000D01*
X180467000Y-122047000D01*
X180467000Y-124333000D01*
X181826217Y-124333000D01*
X181947358Y-124100974D01*
X181944709Y-124085209D01*
X181690732Y-123557964D01*
X181278892Y-123190000D01*
X181690732Y-122822036D01*
X181944709Y-122294791D01*
X181947358Y-122279026D01*
X181826217Y-122047000D01*
X180467000Y-122047000D01*
X180213000Y-122047000D01*
X178853783Y-122047000D01*
X178732642Y-122279026D01*
X161631930Y-122279026D01*
X161703345Y-121920000D01*
X161589271Y-121346511D01*
X161264415Y-120860330D01*
X160949634Y-120650000D01*
X161264415Y-120439670D01*
X161589271Y-119953489D01*
X161631930Y-119739026D01*
X178732642Y-119739026D01*
X178735291Y-119754791D01*
X178989268Y-120282036D01*
X179401108Y-120650000D01*
X178989268Y-121017964D01*
X178735291Y-121545209D01*
X178732642Y-121560974D01*
X178853783Y-121793000D01*
X180213000Y-121793000D01*
X180213000Y-119507000D01*
X180467000Y-119507000D01*
X180467000Y-121793000D01*
X181826217Y-121793000D01*
X181947358Y-121560974D01*
X181944709Y-121545209D01*
X181690732Y-121017964D01*
X181278892Y-120650000D01*
X181690732Y-120282036D01*
X181944709Y-119754791D01*
X181947358Y-119739026D01*
X181826217Y-119507000D01*
X180467000Y-119507000D01*
X180213000Y-119507000D01*
X178853783Y-119507000D01*
X178732642Y-119739026D01*
X161631930Y-119739026D01*
X161703345Y-119380000D01*
X161589271Y-118806511D01*
X161264415Y-118320330D01*
X160949634Y-118110000D01*
X161264415Y-117899670D01*
X161589271Y-117413489D01*
X161703345Y-116840000D01*
X161589271Y-116266511D01*
X161264415Y-115780330D01*
X160949634Y-115570000D01*
X161264415Y-115359670D01*
X161589271Y-114873489D01*
X161703345Y-114300000D01*
X161589271Y-113726511D01*
X161264415Y-113240330D01*
X160949634Y-113030000D01*
X161264415Y-112819670D01*
X161589271Y-112333489D01*
X161703345Y-111760000D01*
X161589271Y-111186511D01*
X161264415Y-110700330D01*
X160949634Y-110490000D01*
X161264415Y-110279670D01*
X161589271Y-109793489D01*
X161703345Y-109220000D01*
X161589271Y-108646511D01*
X161264415Y-108160330D01*
X160949634Y-107950000D01*
X161264415Y-107739670D01*
X161589271Y-107253489D01*
X161703345Y-106680000D01*
X161589271Y-106106511D01*
X161264415Y-105620330D01*
X160949634Y-105410000D01*
X161264415Y-105199670D01*
X161589271Y-104713489D01*
X161703345Y-104140000D01*
X161589271Y-103566511D01*
X161264415Y-103080330D01*
X160949634Y-102870000D01*
X161264415Y-102659670D01*
X161589271Y-102173489D01*
X161703345Y-101600000D01*
X161589271Y-101026511D01*
X161264415Y-100540330D01*
X160949634Y-100330000D01*
X161264415Y-100119670D01*
X161589271Y-99633489D01*
X161703345Y-99060000D01*
X161589271Y-98486511D01*
X161264415Y-98000330D01*
X160949634Y-97790000D01*
X161264415Y-97579670D01*
X161589271Y-97093489D01*
X161703345Y-96520000D01*
X161589271Y-95946511D01*
X161264415Y-95460330D01*
X160949634Y-95250000D01*
X161264415Y-95039670D01*
X161589271Y-94553489D01*
X161703345Y-93980000D01*
X178656655Y-93980000D01*
X178770729Y-94553489D01*
X179095585Y-95039670D01*
X179410366Y-95250000D01*
X179095585Y-95460330D01*
X178770729Y-95946511D01*
X178656655Y-96520000D01*
X178770729Y-97093489D01*
X179095585Y-97579670D01*
X179410366Y-97790000D01*
X179095585Y-98000330D01*
X178770729Y-98486511D01*
X178656655Y-99060000D01*
X178770729Y-99633489D01*
X179095585Y-100119670D01*
X179410366Y-100330000D01*
X179095585Y-100540330D01*
X178770729Y-101026511D01*
X178656655Y-101600000D01*
X178770729Y-102173489D01*
X179095585Y-102659670D01*
X179410366Y-102870000D01*
X179095585Y-103080330D01*
X178770729Y-103566511D01*
X178656655Y-104140000D01*
X178770729Y-104713489D01*
X179095585Y-105199670D01*
X179410366Y-105410000D01*
X179095585Y-105620330D01*
X178770729Y-106106511D01*
X178656655Y-106680000D01*
X178770729Y-107253489D01*
X179095585Y-107739670D01*
X179410366Y-107950000D01*
X179095585Y-108160330D01*
X178770729Y-108646511D01*
X178656655Y-109220000D01*
X178770729Y-109793489D01*
X179095585Y-110279670D01*
X179410366Y-110490000D01*
X179095585Y-110700330D01*
X178770729Y-111186511D01*
X178656655Y-111760000D01*
X178770729Y-112333489D01*
X179095585Y-112819670D01*
X179410366Y-113030000D01*
X179095585Y-113240330D01*
X178770729Y-113726511D01*
X178656655Y-114300000D01*
X178770729Y-114873489D01*
X179095585Y-115359670D01*
X179410366Y-115570000D01*
X179095585Y-115780330D01*
X178770729Y-116266511D01*
X178656655Y-116840000D01*
X178770729Y-117413489D01*
X179095585Y-117899670D01*
X179405069Y-118106461D01*
X178989268Y-118477964D01*
X178735291Y-119005209D01*
X178732642Y-119020974D01*
X178853783Y-119253000D01*
X180213000Y-119253000D01*
X180213000Y-119233000D01*
X180467000Y-119233000D01*
X180467000Y-119253000D01*
X181826217Y-119253000D01*
X181947358Y-119020974D01*
X181944709Y-119005209D01*
X181690732Y-118477964D01*
X181274931Y-118106461D01*
X181584415Y-117899670D01*
X181909271Y-117413489D01*
X182023345Y-116840000D01*
X181909271Y-116266511D01*
X181584415Y-115780330D01*
X181269634Y-115570000D01*
X181584415Y-115359670D01*
X181909271Y-114873489D01*
X182023345Y-114300000D01*
X181909271Y-113726511D01*
X181584415Y-113240330D01*
X181269634Y-113030000D01*
X181584415Y-112819670D01*
X181909271Y-112333489D01*
X182023345Y-111760000D01*
X181909271Y-111186511D01*
X181584415Y-110700330D01*
X181269634Y-110490000D01*
X181584415Y-110279670D01*
X181909271Y-109793489D01*
X182023345Y-109220000D01*
X181909271Y-108646511D01*
X181584415Y-108160330D01*
X181269634Y-107950000D01*
X181584415Y-107739670D01*
X181909271Y-107253489D01*
X182023345Y-106680000D01*
X181909271Y-106106511D01*
X181584415Y-105620330D01*
X181269634Y-105410000D01*
X181584415Y-105199670D01*
X181909271Y-104713489D01*
X182023345Y-104140000D01*
X181909271Y-103566511D01*
X181584415Y-103080330D01*
X181269634Y-102870000D01*
X181584415Y-102659670D01*
X181909271Y-102173489D01*
X182023345Y-101600000D01*
X181909271Y-101026511D01*
X181584415Y-100540330D01*
X181269634Y-100330000D01*
X181584415Y-100119670D01*
X181909271Y-99633489D01*
X182023345Y-99060000D01*
X181909271Y-98486511D01*
X181584415Y-98000330D01*
X181269634Y-97790000D01*
X181584415Y-97579670D01*
X181909271Y-97093489D01*
X182023345Y-96520000D01*
X181909271Y-95946511D01*
X181584415Y-95460330D01*
X181269634Y-95250000D01*
X181584415Y-95039670D01*
X181909271Y-94553489D01*
X182023345Y-93980000D01*
X181909271Y-93406511D01*
X181584415Y-92920330D01*
X181570087Y-92910757D01*
X181591317Y-92906762D01*
X181807441Y-92767690D01*
X181952431Y-92555490D01*
X182003440Y-92303600D01*
X182003440Y-90576400D01*
X181959162Y-90341083D01*
X181820090Y-90124959D01*
X181607890Y-89979969D01*
X181356000Y-89928960D01*
X179324000Y-89928960D01*
X179088683Y-89973238D01*
X178872559Y-90112310D01*
X178727569Y-90324510D01*
X178676560Y-90576400D01*
X178676560Y-92303600D01*
X178720838Y-92538917D01*
X178859910Y-92755041D01*
X179072110Y-92900031D01*
X179113439Y-92908400D01*
X179095585Y-92920330D01*
X178770729Y-93406511D01*
X178656655Y-93980000D01*
X161703345Y-93980000D01*
X161589271Y-93406511D01*
X161264415Y-92920330D01*
X161250087Y-92910757D01*
X161271317Y-92906762D01*
X161487441Y-92767690D01*
X161632431Y-92555490D01*
X161683440Y-92303600D01*
X161683440Y-90576400D01*
X161639162Y-90341083D01*
X161500090Y-90124959D01*
X161287890Y-89979969D01*
X161036000Y-89928960D01*
X159004000Y-89928960D01*
X158768683Y-89973238D01*
X158552559Y-90112310D01*
X158407569Y-90324510D01*
X158356560Y-90576400D01*
X158356560Y-92303600D01*
X158400838Y-92538917D01*
X158539910Y-92755041D01*
X158752110Y-92900031D01*
X158793439Y-92908400D01*
X158775585Y-92920330D01*
X158450729Y-93406511D01*
X158336655Y-93980000D01*
X155650000Y-93980000D01*
X155650000Y-87070000D01*
X184710000Y-87070000D01*
X184710000Y-128830000D01*
X184710000Y-128830000D01*
G37*
X184710000Y-128830000D02*
X155650000Y-128830000D01*
X155650000Y-93980000D01*
X158336655Y-93980000D01*
X158450729Y-94553489D01*
X158775585Y-95039670D01*
X159090366Y-95250000D01*
X158775585Y-95460330D01*
X158450729Y-95946511D01*
X158336655Y-96520000D01*
X158450729Y-97093489D01*
X158775585Y-97579670D01*
X159090366Y-97790000D01*
X158775585Y-98000330D01*
X158450729Y-98486511D01*
X158336655Y-99060000D01*
X158450729Y-99633489D01*
X158775585Y-100119670D01*
X159090366Y-100330000D01*
X158775585Y-100540330D01*
X158450729Y-101026511D01*
X158336655Y-101600000D01*
X158450729Y-102173489D01*
X158775585Y-102659670D01*
X159090366Y-102870000D01*
X158775585Y-103080330D01*
X158450729Y-103566511D01*
X158336655Y-104140000D01*
X158450729Y-104713489D01*
X158775585Y-105199670D01*
X159090366Y-105410000D01*
X158775585Y-105620330D01*
X158450729Y-106106511D01*
X158336655Y-106680000D01*
X158450729Y-107253489D01*
X158775585Y-107739670D01*
X159090366Y-107950000D01*
X158775585Y-108160330D01*
X158450729Y-108646511D01*
X158336655Y-109220000D01*
X158450729Y-109793489D01*
X158775585Y-110279670D01*
X159090366Y-110490000D01*
X158775585Y-110700330D01*
X158450729Y-111186511D01*
X158336655Y-111760000D01*
X158450729Y-112333489D01*
X158775585Y-112819670D01*
X159090366Y-113030000D01*
X158775585Y-113240330D01*
X158450729Y-113726511D01*
X158336655Y-114300000D01*
X158450729Y-114873489D01*
X158775585Y-115359670D01*
X159090366Y-115570000D01*
X158775585Y-115780330D01*
X158450729Y-116266511D01*
X158336655Y-116840000D01*
X158450729Y-117413489D01*
X158775585Y-117899670D01*
X159090366Y-118110000D01*
X158775585Y-118320330D01*
X158450729Y-118806511D01*
X158336655Y-119380000D01*
X158450729Y-119953489D01*
X158775585Y-120439670D01*
X159090366Y-120650000D01*
X158775585Y-120860330D01*
X158450729Y-121346511D01*
X158336655Y-121920000D01*
X158450729Y-122493489D01*
X158775585Y-122979670D01*
X159090366Y-123190000D01*
X158775585Y-123400330D01*
X158450729Y-123886511D01*
X158336655Y-124460000D01*
X158450729Y-125033489D01*
X158775585Y-125519670D01*
X159261766Y-125844526D01*
X159835255Y-125958600D01*
X160204745Y-125958600D01*
X160778234Y-125844526D01*
X161264415Y-125519670D01*
X161589271Y-125033489D01*
X161631930Y-124819026D01*
X178732642Y-124819026D01*
X178735291Y-124834791D01*
X178989268Y-125362036D01*
X179425680Y-125751954D01*
X179978087Y-125945184D01*
X180213000Y-125800924D01*
X180213000Y-124587000D01*
X180467000Y-124587000D01*
X180467000Y-125800924D01*
X180701913Y-125945184D01*
X181254320Y-125751954D01*
X181690732Y-125362036D01*
X181944709Y-124834791D01*
X181947358Y-124819026D01*
X181826217Y-124587000D01*
X180467000Y-124587000D01*
X180213000Y-124587000D01*
X178853783Y-124587000D01*
X178732642Y-124819026D01*
X161631930Y-124819026D01*
X161703345Y-124460000D01*
X161589271Y-123886511D01*
X161264415Y-123400330D01*
X160949634Y-123190000D01*
X161264415Y-122979670D01*
X161589271Y-122493489D01*
X161631930Y-122279026D01*
X178732642Y-122279026D01*
X178735291Y-122294791D01*
X178989268Y-122822036D01*
X179401108Y-123190000D01*
X178989268Y-123557964D01*
X178735291Y-124085209D01*
X178732642Y-124100974D01*
X178853783Y-124333000D01*
X180213000Y-124333000D01*
X180213000Y-122047000D01*
X180467000Y-122047000D01*
X180467000Y-124333000D01*
X181826217Y-124333000D01*
X181947358Y-124100974D01*
X181944709Y-124085209D01*
X181690732Y-123557964D01*
X181278892Y-123190000D01*
X181690732Y-122822036D01*
X181944709Y-122294791D01*
X181947358Y-122279026D01*
X181826217Y-122047000D01*
X180467000Y-122047000D01*
X180213000Y-122047000D01*
X178853783Y-122047000D01*
X178732642Y-122279026D01*
X161631930Y-122279026D01*
X161703345Y-121920000D01*
X161589271Y-121346511D01*
X161264415Y-120860330D01*
X160949634Y-120650000D01*
X161264415Y-120439670D01*
X161589271Y-119953489D01*
X161631930Y-119739026D01*
X178732642Y-119739026D01*
X178735291Y-119754791D01*
X178989268Y-120282036D01*
X179401108Y-120650000D01*
X178989268Y-121017964D01*
X178735291Y-121545209D01*
X178732642Y-121560974D01*
X178853783Y-121793000D01*
X180213000Y-121793000D01*
X180213000Y-119507000D01*
X180467000Y-119507000D01*
X180467000Y-121793000D01*
X181826217Y-121793000D01*
X181947358Y-121560974D01*
X181944709Y-121545209D01*
X181690732Y-121017964D01*
X181278892Y-120650000D01*
X181690732Y-120282036D01*
X181944709Y-119754791D01*
X181947358Y-119739026D01*
X181826217Y-119507000D01*
X180467000Y-119507000D01*
X180213000Y-119507000D01*
X178853783Y-119507000D01*
X178732642Y-119739026D01*
X161631930Y-119739026D01*
X161703345Y-119380000D01*
X161589271Y-118806511D01*
X161264415Y-118320330D01*
X160949634Y-118110000D01*
X161264415Y-117899670D01*
X161589271Y-117413489D01*
X161703345Y-116840000D01*
X161589271Y-116266511D01*
X161264415Y-115780330D01*
X160949634Y-115570000D01*
X161264415Y-115359670D01*
X161589271Y-114873489D01*
X161703345Y-114300000D01*
X161589271Y-113726511D01*
X161264415Y-113240330D01*
X160949634Y-113030000D01*
X161264415Y-112819670D01*
X161589271Y-112333489D01*
X161703345Y-111760000D01*
X161589271Y-111186511D01*
X161264415Y-110700330D01*
X160949634Y-110490000D01*
X161264415Y-110279670D01*
X161589271Y-109793489D01*
X161703345Y-109220000D01*
X161589271Y-108646511D01*
X161264415Y-108160330D01*
X160949634Y-107950000D01*
X161264415Y-107739670D01*
X161589271Y-107253489D01*
X161703345Y-106680000D01*
X161589271Y-106106511D01*
X161264415Y-105620330D01*
X160949634Y-105410000D01*
X161264415Y-105199670D01*
X161589271Y-104713489D01*
X161703345Y-104140000D01*
X161589271Y-103566511D01*
X161264415Y-103080330D01*
X160949634Y-102870000D01*
X161264415Y-102659670D01*
X161589271Y-102173489D01*
X161703345Y-101600000D01*
X161589271Y-101026511D01*
X161264415Y-100540330D01*
X160949634Y-100330000D01*
X161264415Y-100119670D01*
X161589271Y-99633489D01*
X161703345Y-99060000D01*
X161589271Y-98486511D01*
X161264415Y-98000330D01*
X160949634Y-97790000D01*
X161264415Y-97579670D01*
X161589271Y-97093489D01*
X161703345Y-96520000D01*
X161589271Y-95946511D01*
X161264415Y-95460330D01*
X160949634Y-95250000D01*
X161264415Y-95039670D01*
X161589271Y-94553489D01*
X161703345Y-93980000D01*
X178656655Y-93980000D01*
X178770729Y-94553489D01*
X179095585Y-95039670D01*
X179410366Y-95250000D01*
X179095585Y-95460330D01*
X178770729Y-95946511D01*
X178656655Y-96520000D01*
X178770729Y-97093489D01*
X179095585Y-97579670D01*
X179410366Y-97790000D01*
X179095585Y-98000330D01*
X178770729Y-98486511D01*
X178656655Y-99060000D01*
X178770729Y-99633489D01*
X179095585Y-100119670D01*
X179410366Y-100330000D01*
X179095585Y-100540330D01*
X178770729Y-101026511D01*
X178656655Y-101600000D01*
X178770729Y-102173489D01*
X179095585Y-102659670D01*
X179410366Y-102870000D01*
X179095585Y-103080330D01*
X178770729Y-103566511D01*
X178656655Y-104140000D01*
X178770729Y-104713489D01*
X179095585Y-105199670D01*
X179410366Y-105410000D01*
X179095585Y-105620330D01*
X178770729Y-106106511D01*
X178656655Y-106680000D01*
X178770729Y-107253489D01*
X179095585Y-107739670D01*
X179410366Y-107950000D01*
X179095585Y-108160330D01*
X178770729Y-108646511D01*
X178656655Y-109220000D01*
X178770729Y-109793489D01*
X179095585Y-110279670D01*
X179410366Y-110490000D01*
X179095585Y-110700330D01*
X178770729Y-111186511D01*
X178656655Y-111760000D01*
X178770729Y-112333489D01*
X179095585Y-112819670D01*
X179410366Y-113030000D01*
X179095585Y-113240330D01*
X178770729Y-113726511D01*
X178656655Y-114300000D01*
X178770729Y-114873489D01*
X179095585Y-115359670D01*
X179410366Y-115570000D01*
X179095585Y-115780330D01*
X178770729Y-116266511D01*
X178656655Y-116840000D01*
X178770729Y-117413489D01*
X179095585Y-117899670D01*
X179405069Y-118106461D01*
X178989268Y-118477964D01*
X178735291Y-119005209D01*
X178732642Y-119020974D01*
X178853783Y-119253000D01*
X180213000Y-119253000D01*
X180213000Y-119233000D01*
X180467000Y-119233000D01*
X180467000Y-119253000D01*
X181826217Y-119253000D01*
X181947358Y-119020974D01*
X181944709Y-119005209D01*
X181690732Y-118477964D01*
X181274931Y-118106461D01*
X181584415Y-117899670D01*
X181909271Y-117413489D01*
X182023345Y-116840000D01*
X181909271Y-116266511D01*
X181584415Y-115780330D01*
X181269634Y-115570000D01*
X181584415Y-115359670D01*
X181909271Y-114873489D01*
X182023345Y-114300000D01*
X181909271Y-113726511D01*
X181584415Y-113240330D01*
X181269634Y-113030000D01*
X181584415Y-112819670D01*
X181909271Y-112333489D01*
X182023345Y-111760000D01*
X181909271Y-111186511D01*
X181584415Y-110700330D01*
X181269634Y-110490000D01*
X181584415Y-110279670D01*
X181909271Y-109793489D01*
X182023345Y-109220000D01*
X181909271Y-108646511D01*
X181584415Y-108160330D01*
X181269634Y-107950000D01*
X181584415Y-107739670D01*
X181909271Y-107253489D01*
X182023345Y-106680000D01*
X181909271Y-106106511D01*
X181584415Y-105620330D01*
X181269634Y-105410000D01*
X181584415Y-105199670D01*
X181909271Y-104713489D01*
X182023345Y-104140000D01*
X181909271Y-103566511D01*
X181584415Y-103080330D01*
X181269634Y-102870000D01*
X181584415Y-102659670D01*
X181909271Y-102173489D01*
X182023345Y-101600000D01*
X181909271Y-101026511D01*
X181584415Y-100540330D01*
X181269634Y-100330000D01*
X181584415Y-100119670D01*
X181909271Y-99633489D01*
X182023345Y-99060000D01*
X181909271Y-98486511D01*
X181584415Y-98000330D01*
X181269634Y-97790000D01*
X181584415Y-97579670D01*
X181909271Y-97093489D01*
X182023345Y-96520000D01*
X181909271Y-95946511D01*
X181584415Y-95460330D01*
X181269634Y-95250000D01*
X181584415Y-95039670D01*
X181909271Y-94553489D01*
X182023345Y-93980000D01*
X181909271Y-93406511D01*
X181584415Y-92920330D01*
X181570087Y-92910757D01*
X181591317Y-92906762D01*
X181807441Y-92767690D01*
X181952431Y-92555490D01*
X182003440Y-92303600D01*
X182003440Y-90576400D01*
X181959162Y-90341083D01*
X181820090Y-90124959D01*
X181607890Y-89979969D01*
X181356000Y-89928960D01*
X179324000Y-89928960D01*
X179088683Y-89973238D01*
X178872559Y-90112310D01*
X178727569Y-90324510D01*
X178676560Y-90576400D01*
X178676560Y-92303600D01*
X178720838Y-92538917D01*
X178859910Y-92755041D01*
X179072110Y-92900031D01*
X179113439Y-92908400D01*
X179095585Y-92920330D01*
X178770729Y-93406511D01*
X178656655Y-93980000D01*
X161703345Y-93980000D01*
X161589271Y-93406511D01*
X161264415Y-92920330D01*
X161250087Y-92910757D01*
X161271317Y-92906762D01*
X161487441Y-92767690D01*
X161632431Y-92555490D01*
X161683440Y-92303600D01*
X161683440Y-90576400D01*
X161639162Y-90341083D01*
X161500090Y-90124959D01*
X161287890Y-89979969D01*
X161036000Y-89928960D01*
X159004000Y-89928960D01*
X158768683Y-89973238D01*
X158552559Y-90112310D01*
X158407569Y-90324510D01*
X158356560Y-90576400D01*
X158356560Y-92303600D01*
X158400838Y-92538917D01*
X158539910Y-92755041D01*
X158752110Y-92900031D01*
X158793439Y-92908400D01*
X158775585Y-92920330D01*
X158450729Y-93406511D01*
X158336655Y-93980000D01*
X155650000Y-93980000D01*
X155650000Y-87070000D01*
X184710000Y-87070000D01*
X184710000Y-128830000D01*
M02*
