G04 #@! TF.FileFunction,Copper,L1,Top,Signal*
%FSLAX46Y46*%
G04 Gerber Fmt 4.6, Leading zero omitted, Abs format (unit mm)*
G04 Created by KiCad (PCBNEW 4.0.2+e4-6225~38~ubuntu14.04.1-stable) date Thu 30 Jun 2016 19:20:53 SAST*
%MOMM*%
G01*
G04 APERTURE LIST*
%ADD10C,0.050000*%
%ADD11R,1.450000X0.400000*%
%ADD12R,2.032000X1.727200*%
%ADD13O,2.032000X1.727200*%
%ADD14R,1.500000X1.250000*%
%ADD15C,0.380000*%
%ADD16C,0.500000*%
G04 APERTURE END LIST*
D10*
D11*
X144370000Y-97110000D03*
X144370000Y-97760000D03*
X144370000Y-98410000D03*
X144370000Y-99060000D03*
X144370000Y-99710000D03*
X144370000Y-100360000D03*
X144370000Y-101010000D03*
X150270000Y-101010000D03*
X150270000Y-100360000D03*
X150270000Y-99710000D03*
X150270000Y-99060000D03*
X150270000Y-98410000D03*
X150270000Y-97760000D03*
X150270000Y-97110000D03*
D12*
X139700000Y-91440000D03*
D13*
X139700000Y-93980000D03*
X139700000Y-96520000D03*
X139700000Y-99060000D03*
X139700000Y-101600000D03*
X139700000Y-104140000D03*
X139700000Y-106680000D03*
D12*
X154940000Y-91440000D03*
D13*
X154940000Y-93980000D03*
X154940000Y-96520000D03*
X154940000Y-99060000D03*
X154940000Y-101600000D03*
X154940000Y-104140000D03*
X154940000Y-106680000D03*
D14*
X148570000Y-93980000D03*
X146070000Y-93980000D03*
D15*
X144370000Y-97110000D02*
X144370000Y-96110000D01*
X144370000Y-96110000D02*
X139700000Y-91440000D01*
X144370000Y-97760000D02*
X142760000Y-97760000D01*
X141500000Y-95780000D02*
X139700000Y-93980000D01*
X141500000Y-96500000D02*
X141500000Y-95780000D01*
X142760000Y-97760000D02*
X141500000Y-96500000D01*
X144370000Y-98410000D02*
X141590000Y-98410000D01*
X141590000Y-98410000D02*
X139700000Y-96520000D01*
X144370000Y-99710000D02*
X141590000Y-99710000D01*
X141590000Y-99710000D02*
X139700000Y-101600000D01*
X144370000Y-100360000D02*
X142640000Y-100360000D01*
X141500000Y-102340000D02*
X139700000Y-104140000D01*
X141500000Y-101500000D02*
X141500000Y-102340000D01*
X142640000Y-100360000D02*
X141500000Y-101500000D01*
X144370000Y-101010000D02*
X144370000Y-102010000D01*
X144370000Y-102010000D02*
X139700000Y-106680000D01*
X150270000Y-97110000D02*
X150270000Y-96110000D01*
X150270000Y-96110000D02*
X154940000Y-91440000D01*
X150270000Y-97760000D02*
X151990000Y-97760000D01*
X153250000Y-95670000D02*
X154940000Y-93980000D01*
X153250000Y-96500000D02*
X153250000Y-95670000D01*
X151990000Y-97760000D02*
X153250000Y-96500000D01*
X150270000Y-98410000D02*
X153050000Y-98410000D01*
X153050000Y-98410000D02*
X154940000Y-96520000D01*
X150270000Y-99060000D02*
X154940000Y-99060000D01*
X148570000Y-93980000D02*
X148570000Y-98320000D01*
X149310000Y-99060000D02*
X150270000Y-99060000D01*
X148570000Y-98320000D02*
X149310000Y-99060000D01*
X150270000Y-99710000D02*
X153050000Y-99710000D01*
X153050000Y-99710000D02*
X154940000Y-101600000D01*
X150270000Y-100360000D02*
X152110000Y-100360000D01*
X153250000Y-102450000D02*
X154940000Y-104140000D01*
X153250000Y-101500000D02*
X153250000Y-102450000D01*
X152110000Y-100360000D02*
X153250000Y-101500000D01*
X150270000Y-101010000D02*
X150270000Y-102010000D01*
X150270000Y-102010000D02*
X154940000Y-106680000D01*
X144370000Y-99060000D02*
X139700000Y-99060000D01*
X146070000Y-93980000D02*
X146070000Y-98430000D01*
X145440000Y-99060000D02*
X144370000Y-99060000D01*
X146070000Y-98430000D02*
X145440000Y-99060000D01*
D16*
G36*
X156647000Y-90250442D02*
X156509985Y-90037514D01*
X156256682Y-89864440D01*
X155956000Y-89803550D01*
X153924000Y-89803550D01*
X153643102Y-89856405D01*
X153385114Y-90022415D01*
X153212040Y-90275718D01*
X153151150Y-90576400D01*
X153151150Y-91888176D01*
X149599663Y-95439663D01*
X149518000Y-95561880D01*
X149518000Y-95340593D01*
X149600898Y-95324995D01*
X149858886Y-95158985D01*
X150031960Y-94905682D01*
X150092850Y-94605000D01*
X150092850Y-93355000D01*
X150039995Y-93074102D01*
X149873985Y-92816114D01*
X149620682Y-92643040D01*
X149320000Y-92582150D01*
X147820000Y-92582150D01*
X147539102Y-92635005D01*
X147315720Y-92778746D01*
X147249373Y-92712399D01*
X146970776Y-92597000D01*
X146263500Y-92597000D01*
X146074000Y-92786500D01*
X146074000Y-93976000D01*
X146094000Y-93976000D01*
X146094000Y-93984000D01*
X146074000Y-93984000D01*
X146074000Y-95173500D01*
X146263500Y-95363000D01*
X146970776Y-95363000D01*
X147249373Y-95247601D01*
X147317744Y-95179230D01*
X147519318Y-95316960D01*
X147622000Y-95337754D01*
X147622000Y-98320000D01*
X147694162Y-98682784D01*
X147899663Y-98990337D01*
X148639663Y-99730337D01*
X148772150Y-99818862D01*
X148772150Y-99910000D01*
X148796534Y-100039589D01*
X148772150Y-100160000D01*
X148772150Y-100560000D01*
X148796534Y-100689589D01*
X148772150Y-100810000D01*
X148772150Y-101210000D01*
X148825005Y-101490898D01*
X148991015Y-101748886D01*
X149244318Y-101921960D01*
X149322000Y-101937691D01*
X149322000Y-102010000D01*
X149394162Y-102372784D01*
X149599663Y-102680337D01*
X153208905Y-106289579D01*
X153131245Y-106680000D01*
X153254682Y-107300559D01*
X153606201Y-107826644D01*
X154132286Y-108178163D01*
X154752845Y-108301600D01*
X155127155Y-108301600D01*
X155747714Y-108178163D01*
X156273799Y-107826644D01*
X156625318Y-107300559D01*
X156647000Y-107191556D01*
X156647000Y-108387000D01*
X137993000Y-108387000D01*
X137993000Y-107191556D01*
X138014682Y-107300559D01*
X138366201Y-107826644D01*
X138892286Y-108178163D01*
X139512845Y-108301600D01*
X139887155Y-108301600D01*
X140507714Y-108178163D01*
X141033799Y-107826644D01*
X141385318Y-107300559D01*
X141508755Y-106680000D01*
X141431095Y-106289579D01*
X145040337Y-102680337D01*
X145245838Y-102372784D01*
X145286107Y-102170337D01*
X145318000Y-102010000D01*
X145318000Y-101940889D01*
X145375898Y-101929995D01*
X145633886Y-101763985D01*
X145806960Y-101510682D01*
X145867850Y-101210000D01*
X145867850Y-100810000D01*
X145843466Y-100680411D01*
X145867850Y-100560000D01*
X145867850Y-100160000D01*
X145843466Y-100030411D01*
X145867850Y-99910000D01*
X145867850Y-99510000D01*
X145850373Y-99417118D01*
X145853000Y-99410775D01*
X145853000Y-99253500D01*
X145790436Y-99190936D01*
X145705577Y-99059061D01*
X145802952Y-98916548D01*
X145853000Y-98866500D01*
X145853000Y-98709225D01*
X145849478Y-98700722D01*
X145867850Y-98610000D01*
X145867850Y-98210000D01*
X145843466Y-98080411D01*
X145867850Y-97960000D01*
X145867850Y-97560000D01*
X145843466Y-97430411D01*
X145867850Y-97310000D01*
X145867850Y-96910000D01*
X145814995Y-96629102D01*
X145648985Y-96371114D01*
X145395682Y-96198040D01*
X145318000Y-96182309D01*
X145318000Y-96110000D01*
X145245838Y-95747216D01*
X145040337Y-95439663D01*
X143774174Y-94173500D01*
X144562000Y-94173500D01*
X144562000Y-94755775D01*
X144677398Y-95034372D01*
X144890627Y-95247601D01*
X145169224Y-95363000D01*
X145876500Y-95363000D01*
X146066000Y-95173500D01*
X146066000Y-93984000D01*
X144751500Y-93984000D01*
X144562000Y-94173500D01*
X143774174Y-94173500D01*
X142804899Y-93204225D01*
X144562000Y-93204225D01*
X144562000Y-93786500D01*
X144751500Y-93976000D01*
X146066000Y-93976000D01*
X146066000Y-92786500D01*
X145876500Y-92597000D01*
X145169224Y-92597000D01*
X144890627Y-92712399D01*
X144677398Y-92925628D01*
X144562000Y-93204225D01*
X142804899Y-93204225D01*
X141488850Y-91888176D01*
X141488850Y-90576400D01*
X141435995Y-90295502D01*
X141269985Y-90037514D01*
X141016682Y-89864440D01*
X140716000Y-89803550D01*
X138684000Y-89803550D01*
X138403102Y-89856405D01*
X138145114Y-90022415D01*
X137993000Y-90245042D01*
X137993000Y-89733000D01*
X156647000Y-89733000D01*
X156647000Y-90250442D01*
X156647000Y-90250442D01*
G37*
X156647000Y-90250442D02*
X156509985Y-90037514D01*
X156256682Y-89864440D01*
X155956000Y-89803550D01*
X153924000Y-89803550D01*
X153643102Y-89856405D01*
X153385114Y-90022415D01*
X153212040Y-90275718D01*
X153151150Y-90576400D01*
X153151150Y-91888176D01*
X149599663Y-95439663D01*
X149518000Y-95561880D01*
X149518000Y-95340593D01*
X149600898Y-95324995D01*
X149858886Y-95158985D01*
X150031960Y-94905682D01*
X150092850Y-94605000D01*
X150092850Y-93355000D01*
X150039995Y-93074102D01*
X149873985Y-92816114D01*
X149620682Y-92643040D01*
X149320000Y-92582150D01*
X147820000Y-92582150D01*
X147539102Y-92635005D01*
X147315720Y-92778746D01*
X147249373Y-92712399D01*
X146970776Y-92597000D01*
X146263500Y-92597000D01*
X146074000Y-92786500D01*
X146074000Y-93976000D01*
X146094000Y-93976000D01*
X146094000Y-93984000D01*
X146074000Y-93984000D01*
X146074000Y-95173500D01*
X146263500Y-95363000D01*
X146970776Y-95363000D01*
X147249373Y-95247601D01*
X147317744Y-95179230D01*
X147519318Y-95316960D01*
X147622000Y-95337754D01*
X147622000Y-98320000D01*
X147694162Y-98682784D01*
X147899663Y-98990337D01*
X148639663Y-99730337D01*
X148772150Y-99818862D01*
X148772150Y-99910000D01*
X148796534Y-100039589D01*
X148772150Y-100160000D01*
X148772150Y-100560000D01*
X148796534Y-100689589D01*
X148772150Y-100810000D01*
X148772150Y-101210000D01*
X148825005Y-101490898D01*
X148991015Y-101748886D01*
X149244318Y-101921960D01*
X149322000Y-101937691D01*
X149322000Y-102010000D01*
X149394162Y-102372784D01*
X149599663Y-102680337D01*
X153208905Y-106289579D01*
X153131245Y-106680000D01*
X153254682Y-107300559D01*
X153606201Y-107826644D01*
X154132286Y-108178163D01*
X154752845Y-108301600D01*
X155127155Y-108301600D01*
X155747714Y-108178163D01*
X156273799Y-107826644D01*
X156625318Y-107300559D01*
X156647000Y-107191556D01*
X156647000Y-108387000D01*
X137993000Y-108387000D01*
X137993000Y-107191556D01*
X138014682Y-107300559D01*
X138366201Y-107826644D01*
X138892286Y-108178163D01*
X139512845Y-108301600D01*
X139887155Y-108301600D01*
X140507714Y-108178163D01*
X141033799Y-107826644D01*
X141385318Y-107300559D01*
X141508755Y-106680000D01*
X141431095Y-106289579D01*
X145040337Y-102680337D01*
X145245838Y-102372784D01*
X145286107Y-102170337D01*
X145318000Y-102010000D01*
X145318000Y-101940889D01*
X145375898Y-101929995D01*
X145633886Y-101763985D01*
X145806960Y-101510682D01*
X145867850Y-101210000D01*
X145867850Y-100810000D01*
X145843466Y-100680411D01*
X145867850Y-100560000D01*
X145867850Y-100160000D01*
X145843466Y-100030411D01*
X145867850Y-99910000D01*
X145867850Y-99510000D01*
X145850373Y-99417118D01*
X145853000Y-99410775D01*
X145853000Y-99253500D01*
X145790436Y-99190936D01*
X145705577Y-99059061D01*
X145802952Y-98916548D01*
X145853000Y-98866500D01*
X145853000Y-98709225D01*
X145849478Y-98700722D01*
X145867850Y-98610000D01*
X145867850Y-98210000D01*
X145843466Y-98080411D01*
X145867850Y-97960000D01*
X145867850Y-97560000D01*
X145843466Y-97430411D01*
X145867850Y-97310000D01*
X145867850Y-96910000D01*
X145814995Y-96629102D01*
X145648985Y-96371114D01*
X145395682Y-96198040D01*
X145318000Y-96182309D01*
X145318000Y-96110000D01*
X145245838Y-95747216D01*
X145040337Y-95439663D01*
X143774174Y-94173500D01*
X144562000Y-94173500D01*
X144562000Y-94755775D01*
X144677398Y-95034372D01*
X144890627Y-95247601D01*
X145169224Y-95363000D01*
X145876500Y-95363000D01*
X146066000Y-95173500D01*
X146066000Y-93984000D01*
X144751500Y-93984000D01*
X144562000Y-94173500D01*
X143774174Y-94173500D01*
X142804899Y-93204225D01*
X144562000Y-93204225D01*
X144562000Y-93786500D01*
X144751500Y-93976000D01*
X146066000Y-93976000D01*
X146066000Y-92786500D01*
X145876500Y-92597000D01*
X145169224Y-92597000D01*
X144890627Y-92712399D01*
X144677398Y-92925628D01*
X144562000Y-93204225D01*
X142804899Y-93204225D01*
X141488850Y-91888176D01*
X141488850Y-90576400D01*
X141435995Y-90295502D01*
X141269985Y-90037514D01*
X141016682Y-89864440D01*
X140716000Y-89803550D01*
X138684000Y-89803550D01*
X138403102Y-89856405D01*
X138145114Y-90022415D01*
X137993000Y-90245042D01*
X137993000Y-89733000D01*
X156647000Y-89733000D01*
X156647000Y-90250442D01*
G36*
X139704000Y-99056000D02*
X139724000Y-99056000D01*
X139724000Y-99064000D01*
X139704000Y-99064000D01*
X139704000Y-99084000D01*
X139696000Y-99084000D01*
X139696000Y-99064000D01*
X139676000Y-99064000D01*
X139676000Y-99056000D01*
X139696000Y-99056000D01*
X139696000Y-99036000D01*
X139704000Y-99036000D01*
X139704000Y-99056000D01*
X139704000Y-99056000D01*
G37*
X139704000Y-99056000D02*
X139724000Y-99056000D01*
X139724000Y-99064000D01*
X139704000Y-99064000D01*
X139704000Y-99084000D01*
X139696000Y-99084000D01*
X139696000Y-99064000D01*
X139676000Y-99064000D01*
X139676000Y-99056000D01*
X139696000Y-99056000D01*
X139696000Y-99036000D01*
X139704000Y-99036000D01*
X139704000Y-99056000D01*
M02*
