G04 #@! TF.FileFunction,Copper,L2,Bot,Signal*
%FSLAX46Y46*%
G04 Gerber Fmt 4.6, Leading zero omitted, Abs format (unit mm)*
G04 Created by KiCad (PCBNEW 4.0.2+e4-6225~38~ubuntu14.04.1-stable) date Thu 30 Jun 2016 19:20:53 SAST*
%MOMM*%
G01*
G04 APERTURE LIST*
%ADD10C,0.050000*%
%ADD11R,2.032000X1.727200*%
%ADD12O,2.032000X1.727200*%
%ADD13C,0.500000*%
G04 APERTURE END LIST*
D10*
D11*
X139700000Y-91440000D03*
D12*
X139700000Y-93980000D03*
X139700000Y-96520000D03*
X139700000Y-99060000D03*
X139700000Y-101600000D03*
X139700000Y-104140000D03*
X139700000Y-106680000D03*
D11*
X154940000Y-91440000D03*
D12*
X154940000Y-93980000D03*
X154940000Y-96520000D03*
X154940000Y-99060000D03*
X154940000Y-101600000D03*
X154940000Y-104140000D03*
X154940000Y-106680000D03*
D13*
G36*
X156647000Y-90250442D02*
X156509985Y-90037514D01*
X156256682Y-89864440D01*
X155956000Y-89803550D01*
X153924000Y-89803550D01*
X153643102Y-89856405D01*
X153385114Y-90022415D01*
X153212040Y-90275718D01*
X153151150Y-90576400D01*
X153151150Y-92303600D01*
X153204005Y-92584498D01*
X153370015Y-92842486D01*
X153527982Y-92950420D01*
X153254682Y-93359441D01*
X153131245Y-93980000D01*
X153254682Y-94600559D01*
X153606201Y-95126644D01*
X153790816Y-95250000D01*
X153606201Y-95373356D01*
X153254682Y-95899441D01*
X153131245Y-96520000D01*
X153254682Y-97140559D01*
X153606201Y-97666644D01*
X153790816Y-97790000D01*
X153606201Y-97913356D01*
X153254682Y-98439441D01*
X153131245Y-99060000D01*
X153254682Y-99680559D01*
X153606201Y-100206644D01*
X153790816Y-100330000D01*
X153606201Y-100453356D01*
X153254682Y-100979441D01*
X153131245Y-101600000D01*
X153254682Y-102220559D01*
X153606201Y-102746644D01*
X153790816Y-102870000D01*
X153606201Y-102993356D01*
X153254682Y-103519441D01*
X153131245Y-104140000D01*
X153254682Y-104760559D01*
X153606201Y-105286644D01*
X153790816Y-105410000D01*
X153606201Y-105533356D01*
X153254682Y-106059441D01*
X153131245Y-106680000D01*
X153254682Y-107300559D01*
X153606201Y-107826644D01*
X154132286Y-108178163D01*
X154752845Y-108301600D01*
X155127155Y-108301600D01*
X155747714Y-108178163D01*
X156273799Y-107826644D01*
X156625318Y-107300559D01*
X156647000Y-107191556D01*
X156647000Y-108387000D01*
X137993000Y-108387000D01*
X137993000Y-107191556D01*
X138014682Y-107300559D01*
X138366201Y-107826644D01*
X138892286Y-108178163D01*
X139512845Y-108301600D01*
X139887155Y-108301600D01*
X140507714Y-108178163D01*
X141033799Y-107826644D01*
X141385318Y-107300559D01*
X141508755Y-106680000D01*
X141385318Y-106059441D01*
X141033799Y-105533356D01*
X140849184Y-105410000D01*
X141033799Y-105286644D01*
X141385318Y-104760559D01*
X141508755Y-104140000D01*
X141385318Y-103519441D01*
X141033799Y-102993356D01*
X140849184Y-102870000D01*
X141033799Y-102746644D01*
X141385318Y-102220559D01*
X141508755Y-101600000D01*
X141385318Y-100979441D01*
X141033799Y-100453356D01*
X140831560Y-100318224D01*
X141001873Y-100203816D01*
X141352094Y-99676864D01*
X141453405Y-99317624D01*
X141284494Y-99064000D01*
X139704000Y-99064000D01*
X139704000Y-99084000D01*
X139696000Y-99084000D01*
X139696000Y-99064000D01*
X139676000Y-99064000D01*
X139676000Y-99056000D01*
X139696000Y-99056000D01*
X139696000Y-99036000D01*
X139704000Y-99036000D01*
X139704000Y-99056000D01*
X141284494Y-99056000D01*
X141453405Y-98802376D01*
X141352094Y-98443136D01*
X141001873Y-97916184D01*
X140831560Y-97801776D01*
X141033799Y-97666644D01*
X141385318Y-97140559D01*
X141508755Y-96520000D01*
X141385318Y-95899441D01*
X141033799Y-95373356D01*
X140849184Y-95250000D01*
X141033799Y-95126644D01*
X141385318Y-94600559D01*
X141508755Y-93980000D01*
X141385318Y-93359441D01*
X141111597Y-92949789D01*
X141254886Y-92857585D01*
X141427960Y-92604282D01*
X141488850Y-92303600D01*
X141488850Y-90576400D01*
X141435995Y-90295502D01*
X141269985Y-90037514D01*
X141016682Y-89864440D01*
X140716000Y-89803550D01*
X138684000Y-89803550D01*
X138403102Y-89856405D01*
X138145114Y-90022415D01*
X137993000Y-90245042D01*
X137993000Y-89733000D01*
X156647000Y-89733000D01*
X156647000Y-90250442D01*
X156647000Y-90250442D01*
G37*
X156647000Y-90250442D02*
X156509985Y-90037514D01*
X156256682Y-89864440D01*
X155956000Y-89803550D01*
X153924000Y-89803550D01*
X153643102Y-89856405D01*
X153385114Y-90022415D01*
X153212040Y-90275718D01*
X153151150Y-90576400D01*
X153151150Y-92303600D01*
X153204005Y-92584498D01*
X153370015Y-92842486D01*
X153527982Y-92950420D01*
X153254682Y-93359441D01*
X153131245Y-93980000D01*
X153254682Y-94600559D01*
X153606201Y-95126644D01*
X153790816Y-95250000D01*
X153606201Y-95373356D01*
X153254682Y-95899441D01*
X153131245Y-96520000D01*
X153254682Y-97140559D01*
X153606201Y-97666644D01*
X153790816Y-97790000D01*
X153606201Y-97913356D01*
X153254682Y-98439441D01*
X153131245Y-99060000D01*
X153254682Y-99680559D01*
X153606201Y-100206644D01*
X153790816Y-100330000D01*
X153606201Y-100453356D01*
X153254682Y-100979441D01*
X153131245Y-101600000D01*
X153254682Y-102220559D01*
X153606201Y-102746644D01*
X153790816Y-102870000D01*
X153606201Y-102993356D01*
X153254682Y-103519441D01*
X153131245Y-104140000D01*
X153254682Y-104760559D01*
X153606201Y-105286644D01*
X153790816Y-105410000D01*
X153606201Y-105533356D01*
X153254682Y-106059441D01*
X153131245Y-106680000D01*
X153254682Y-107300559D01*
X153606201Y-107826644D01*
X154132286Y-108178163D01*
X154752845Y-108301600D01*
X155127155Y-108301600D01*
X155747714Y-108178163D01*
X156273799Y-107826644D01*
X156625318Y-107300559D01*
X156647000Y-107191556D01*
X156647000Y-108387000D01*
X137993000Y-108387000D01*
X137993000Y-107191556D01*
X138014682Y-107300559D01*
X138366201Y-107826644D01*
X138892286Y-108178163D01*
X139512845Y-108301600D01*
X139887155Y-108301600D01*
X140507714Y-108178163D01*
X141033799Y-107826644D01*
X141385318Y-107300559D01*
X141508755Y-106680000D01*
X141385318Y-106059441D01*
X141033799Y-105533356D01*
X140849184Y-105410000D01*
X141033799Y-105286644D01*
X141385318Y-104760559D01*
X141508755Y-104140000D01*
X141385318Y-103519441D01*
X141033799Y-102993356D01*
X140849184Y-102870000D01*
X141033799Y-102746644D01*
X141385318Y-102220559D01*
X141508755Y-101600000D01*
X141385318Y-100979441D01*
X141033799Y-100453356D01*
X140831560Y-100318224D01*
X141001873Y-100203816D01*
X141352094Y-99676864D01*
X141453405Y-99317624D01*
X141284494Y-99064000D01*
X139704000Y-99064000D01*
X139704000Y-99084000D01*
X139696000Y-99084000D01*
X139696000Y-99064000D01*
X139676000Y-99064000D01*
X139676000Y-99056000D01*
X139696000Y-99056000D01*
X139696000Y-99036000D01*
X139704000Y-99036000D01*
X139704000Y-99056000D01*
X141284494Y-99056000D01*
X141453405Y-98802376D01*
X141352094Y-98443136D01*
X141001873Y-97916184D01*
X140831560Y-97801776D01*
X141033799Y-97666644D01*
X141385318Y-97140559D01*
X141508755Y-96520000D01*
X141385318Y-95899441D01*
X141033799Y-95373356D01*
X140849184Y-95250000D01*
X141033799Y-95126644D01*
X141385318Y-94600559D01*
X141508755Y-93980000D01*
X141385318Y-93359441D01*
X141111597Y-92949789D01*
X141254886Y-92857585D01*
X141427960Y-92604282D01*
X141488850Y-92303600D01*
X141488850Y-90576400D01*
X141435995Y-90295502D01*
X141269985Y-90037514D01*
X141016682Y-89864440D01*
X140716000Y-89803550D01*
X138684000Y-89803550D01*
X138403102Y-89856405D01*
X138145114Y-90022415D01*
X137993000Y-90245042D01*
X137993000Y-89733000D01*
X156647000Y-89733000D01*
X156647000Y-90250442D01*
M02*
